<svg width="18" height="28" viewBox="0 0 18 28" fill="none" xmlns="http://www.w3.org/2000/svg">
<path d="M14.25 11.75L13.3125 9.6875L11.25 8.75L13.3125 7.8125L14.25 5.75L15.1875 7.8125L17.25 8.75L15.1875 9.6875L14.25 11.75ZM14.25 22.25L13.3125 20.1875L11.25 19.25L13.3125 18.3125L14.25 16.25L15.1875 18.3125L17.25 19.25L15.1875 20.1875L14.25 22.25ZM6.75 20L4.875 15.875L0.75 14L4.875 12.125L6.75 8L8.625 12.125L12.75 14L8.625 15.875L6.75 20ZM6.75 16.3625L7.5 14.75L9.1125 14L7.5 13.25L6.75 11.6375L6 13.25L4.3875 14L6 14.75L6.75 16.3625Z" fill="#475569"/>
</svg>
