<svg width="18" height="28" viewBox="0 0 18 28" fill="none" xmlns="http://www.w3.org/2000/svg">
<path d="M2.25 20.75V10.25H5.25V7.25H12.75V13.25H15.75V20.75H9.75V17.75H8.25V20.75H2.25ZM3.75 19.25H5.25V17.75H3.75V19.25ZM3.75 16.25H5.25V14.75H3.75V16.25ZM3.75 13.25H5.25V11.75H3.75V13.25ZM6.75 16.25H8.25V14.75H6.75V16.25ZM6.75 13.25H8.25V11.75H6.75V13.25ZM6.75 10.25H8.25V8.75H6.75V10.25ZM9.75 16.25H11.25V14.75H9.75V16.25ZM9.75 13.25H11.25V11.75H9.75V13.25ZM9.75 10.25H11.25V8.75H9.75V10.25ZM12.75 19.25H14.25V17.75H12.75V19.25ZM12.75 16.25H14.25V14.75H12.75V16.25Z" fill="#475569"/>
</svg>
