<svg width="18" height="28" viewBox="0 0 18 28" fill="none" xmlns="http://www.w3.org/2000/svg">
<path d="M4.5 22.25C4.5 22.25 4.34375 22.25 4.03125 22.25C3.71875 22.25 3.34375 22.0312 2.90625 21.5938C2.46875 21.1562 2.25 20.625 2.25 20C2.25 19.375 2.46875 18.8437 2.90625 18.4062C3.34375 17.9688 3.875 17.75 4.5 17.75C4.675 17.75 4.8375 17.7687 4.9875 17.8062C5.1375 17.8438 5.28125 17.8937 5.41875 17.9562L6.4875 16.625C6.1375 16.2375 5.89375 15.8 5.75625 15.3125C5.61875 14.825 5.5875 14.3375 5.6625 13.85L4.14375 13.3438C3.93125 13.6562 3.6625 13.9062 3.3375 14.0938C3.0125 14.2812 2.65 14.375 2.25 14.375C1.625 14.375 1.09375 14.1562 0.65625 13.7188C0.21875 13.2812 0 12.75 0 12.125C0 11.5 0.21875 10.9688 0.65625 10.5312C1.09375 10.0937 1.625 9.875 2.25 9.875C2.875 9.875 3.40625 10.0937 3.84375 10.5312C4.28125 10.9688 4.5 11.5 4.5 12.125C4.5 12.15 4.5 12.175 4.5 12.2C4.5 12.225 4.5 12.25 4.5 12.275L6.01875 12.8C6.26875 12.35 6.60313 11.9688 7.02188 11.6562C7.44063 11.3438 7.9125 11.1437 8.4375 11.0562V9.425C7.95 9.2875 7.54688 9.02187 7.22813 8.62812C6.90938 8.23437 6.75 7.775 6.75 7.25C6.75 6.625 6.96875 6.09375 7.40625 5.65625C7.84375 5.21875 8.375 5 9 5C9.625 5 10.1562 5.21875 10.5938 5.65625C11.0312 6.09375 11.25 6.625 11.25 7.25C11.25 7.775 11.0875 8.23437 10.7625 8.62812C10.4375 9.02187 10.0375 9.2875 9.5625 9.425V11.0562C10.0875 11.1437 10.5594 11.3438 10.9781 11.6562C11.3969 11.9688 11.7313 12.35 11.9813 12.8L13.5 12.275C13.5 12.25 13.5 12.225 13.5 12.2C13.5 12.175 13.5 12.15 13.5 12.125C13.5 11.5 13.7188 10.9688 14.1563 10.5312C14.5938 10.0937 15.125 9.875 15.75 9.875C16.375 9.875 16.9062 10.0937 17.3438 10.5312C17.7812 10.9688 18 11.5 18 12.125C18 12.75 17.7812 13.2812 17.3438 13.7188C16.9062 14.1562 16.375 14.375 15.75 14.375C15.35 14.375 14.9844 14.2812 14.6531 14.0938C14.3219 13.9062 14.0563 13.6562 13.8563 13.3438L12.3375 13.85C12.4125 14.3375 12.3813 14.8219 12.2438 15.3031C12.1063 15.7844 11.8625 16.225 11.5125 16.625L12.5813 17.9375C12.7188 17.875 12.8625 17.8281 13.0125 17.7969C13.1625 17.7656 13.325 17.75 13.5 17.75C14.125 17.75 14.6563 17.9688 15.0938 18.4062C15.5313 18.8437 15.75 19.375 15.75 20C15.75 20.625 15.5313 21.1562 15.0938 21.5938C14.6563 22.0312 14.125 22.25 13.5 22.25C12.875 22.25 12.3438 22.0312 11.9062 21.5938C11.4688 21.1562 11.25 20.625 11.25 20C11.25 19.75 11.2906 19.5094 11.3719 19.2781C11.4531 19.0469 11.5625 18.8375 11.7 18.65L10.6313 17.3187C10.1188 17.6062 9.57188 17.75 8.99063 17.75C8.40938 17.75 7.8625 17.6062 7.35 17.3187L6.3 18.65C6.4375 18.8375 6.54688 19.0469 6.62813 19.2781C6.70938 19.5094 6.75 19.75 6.75 20C6.75 20.625 6.53125 21.1562 6.09375 21.5938C5.65625 22.0312 5.125 22.25 4.5 22.25ZM2.25 12.875C2.4625 12.875 2.64062 12.8031 2.78438 12.6594C2.92813 12.5156 3 12.3375 3 12.125C3 11.9125 2.92813 11.7344 2.78438 11.5906C2.64062 11.4469 2.4625 11.375 2.25 11.375C2.0375 11.375 1.85938 11.4469 1.71563 11.5906C1.57188 11.7344 1.5 11.9125 1.5 12.125C1.5 12.3375 1.57188 12.5156 1.71563 12.6594C1.85938 12.8031 2.0375 12.875 2.25 12.875ZM4.5 20.75C4.5 20.75 4.55313 20.75 4.65938 20.75C4.76562 20.75 4.89062 20.6781 5.03438 20.5344C5.17813 20.3906 5.25 20.2125 5.25 20C5.25 19.7875 5.17813 19.6094 5.03438 19.4656C4.89062 19.3219 4.7125 19.25 4.5 19.25C4.2875 19.25 4.10938 19.3219 3.96563 19.4656C3.82188 19.6094 3.75 19.7875 3.75 20C3.75 20.2125 3.82188 20.3906 3.96563 20.5344C4.10938 20.6781 4.2875 20.75 4.5 20.75ZM9 8C9 8 9.05313 8 9.15938 8C9.26562 8 9.39062 7.92812 9.53438 7.78437C9.67813 7.64062 9.75 7.4625 9.75 7.25C9.75 7.0375 9.67813 6.85937 9.53438 6.71562C9.39062 6.57187 9.2125 6.5 9 6.5C8.7875 6.5 8.60938 6.57187 8.46563 6.71562C8.32188 6.85937 8.25 7.0375 8.25 7.25C8.25 7.4625 8.32188 7.64062 8.46563 7.78437C8.60938 7.92812 8.7875 8 9 8ZM9 16.25C9.525 16.25 9.96875 16.0687 10.3313 15.7062C10.6938 15.3437 10.875 14.9 10.875 14.375C10.875 13.85 10.6938 13.4062 10.3313 13.0437C9.96875 12.6812 9.525 12.5 9 12.5C8.475 12.5 8.03125 12.6812 7.66875 13.0437C7.30625 13.4062 7.125 13.85 7.125 14.375C7.125 14.9 7.30625 15.3437 7.66875 15.7062C8.03125 16.0687 8.475 16.25 9 16.25ZM13.5 20.75C13.5 20.75 13.5531 20.75 13.6594 20.75C13.7656 20.75 13.8906 20.6781 14.0344 20.5344C14.1781 20.3906 14.25 20.2125 14.25 20C14.25 19.7875 14.1781 19.6094 14.0344 19.4656C13.8906 19.3219 13.7125 19.25 13.5 19.25C13.2875 19.25 13.1094 19.3219 12.9656 19.4656C12.8219 19.6094 12.75 19.7875 12.75 20C12.75 20.2125 12.8219 20.3906 12.9656 20.5344C13.1094 20.6781 13.2875 20.75 13.5 20.75ZM15.75 12.875C15.75 12.875 15.8031 12.875 15.9094 12.875C16.0156 12.875 16.1406 12.8031 16.2844 12.6594C16.4281 12.5156 16.5 12.3375 16.5 12.125C16.5 11.9125 16.4281 11.7344 16.2844 11.5906C16.1406 11.4469 15.9625 11.375 15.75 11.375C15.5375 11.375 15.3594 11.4469 15.2156 11.5906C15.0719 11.7344 15 11.9125 15 12.125C15 12.3375 15.0719 12.5156 15.2156 12.6594C15.3594 12.8031 15.5375 12.875 15.75 12.875Z" fill="#475569"/>
</svg>
