<svg width="30" height="36" viewBox="0 0 30 36" fill="none" xmlns="http://www.w3.org/2000/svg">
<path d="M3.75 21.125C3.75 21.125 3.70833 21.125 3.625 21.125C3.54167 21.125 3.4375 21.0625 3.3125 20.9375C3.1875 20.8125 3.125 20.6667 3.125 20.5C3.125 20.3333 3.1875 20.1875 3.3125 20.0625C3.4375 19.9375 3.58333 19.875 3.75 19.875C3.91667 19.875 4.0625 19.9375 4.1875 20.0625C4.3125 20.1875 4.375 20.3333 4.375 20.5C4.375 20.6667 4.3125 20.8125 4.1875 20.9375C4.0625 21.0625 3.91667 21.125 3.75 21.125ZM3.75 16.125C3.75 16.125 3.70833 16.125 3.625 16.125C3.54167 16.125 3.4375 16.0625 3.3125 15.9375C3.1875 15.8125 3.125 15.6667 3.125 15.5C3.125 15.3333 3.1875 15.1875 3.3125 15.0625C3.4375 14.9375 3.58333 14.875 3.75 14.875C3.91667 14.875 4.0625 14.9375 4.1875 15.0625C4.3125 15.1875 4.375 15.3333 4.375 15.5C4.375 15.6667 4.3125 15.8125 4.1875 15.9375C4.0625 16.0625 3.91667 16.125 3.75 16.125ZM7.5 26.75C7.5 26.75 7.41146 26.75 7.23438 26.75C7.05729 26.75 6.84896 26.6302 6.60938 26.3906C6.36979 26.151 6.25 25.8542 6.25 25.5C6.25 25.1458 6.36979 24.849 6.60938 24.6094C6.84896 24.3698 7.14583 24.25 7.5 24.25C7.85417 24.25 8.15104 24.3698 8.39062 24.6094C8.63021 24.849 8.75 25.1458 8.75 25.5C8.75 25.8542 8.63021 26.151 8.39062 26.3906C8.15104 26.6302 7.85417 26.75 7.5 26.75ZM7.5 21.75C7.5 21.75 7.41146 21.75 7.23438 21.75C7.05729 21.75 6.84896 21.6302 6.60938 21.3906C6.36979 21.151 6.25 20.8542 6.25 20.5C6.25 20.1458 6.36979 19.849 6.60938 19.6094C6.84896 19.3698 7.14583 19.25 7.5 19.25C7.85417 19.25 8.15104 19.3698 8.39062 19.6094C8.63021 19.849 8.75 20.1458 8.75 20.5C8.75 20.8542 8.63021 21.151 8.39062 21.3906C8.15104 21.6302 7.85417 21.75 7.5 21.75ZM7.5 16.75C7.5 16.75 7.41146 16.75 7.23438 16.75C7.05729 16.75 6.84896 16.6302 6.60938 16.3906C6.36979 16.151 6.25 15.8542 6.25 15.5C6.25 15.1458 6.36979 14.849 6.60938 14.6094C6.84896 14.3698 7.14583 14.25 7.5 14.25C7.85417 14.25 8.15104 14.3698 8.39062 14.6094C8.63021 14.849 8.75 15.1458 8.75 15.5C8.75 15.8542 8.63021 16.151 8.39062 16.3906C8.15104 16.6302 7.85417 16.75 7.5 16.75ZM7.5 11.75C7.5 11.75 7.41146 11.75 7.23438 11.75C7.05729 11.75 6.84896 11.6302 6.60938 11.3906C6.36979 11.151 6.25 10.8542 6.25 10.5C6.25 10.1458 6.36979 9.84896 6.60938 9.60938C6.84896 9.36979 7.14583 9.25 7.5 9.25C7.85417 9.25 8.15104 9.36979 8.39062 9.60938C8.63021 9.84896 8.75 10.1458 8.75 10.5C8.75 10.8542 8.63021 11.151 8.39062 11.3906C8.15104 11.6302 7.85417 11.75 7.5 11.75ZM12.5 22.375C12.5 22.375 12.3698 22.375 12.1094 22.375C11.849 22.375 11.5365 22.1927 11.1719 21.8281C10.8073 21.4635 10.625 21.0208 10.625 20.5C10.625 19.9792 10.8073 19.5365 11.1719 19.1719C11.5365 18.8073 11.9792 18.625 12.5 18.625C13.0208 18.625 13.4635 18.8073 13.8281 19.1719C14.1927 19.5365 14.375 19.9792 14.375 20.5C14.375 21.0208 14.1927 21.4635 13.8281 21.8281C13.4635 22.1927 13.0208 22.375 12.5 22.375ZM12.5 17.375C12.5 17.375 12.3698 17.375 12.1094 17.375C11.849 17.375 11.5365 17.1927 11.1719 16.8281C10.8073 16.4635 10.625 16.0208 10.625 15.5C10.625 14.9792 10.8073 14.5365 11.1719 14.1719C11.5365 13.8073 11.9792 13.625 12.5 13.625C13.0208 13.625 13.4635 13.8073 13.8281 14.1719C14.1927 14.5365 14.375 14.9792 14.375 15.5C14.375 16.0208 14.1927 16.4635 13.8281 16.8281C13.4635 17.1927 13.0208 17.375 12.5 17.375ZM12.5 26.75C12.5 26.75 12.4115 26.75 12.2344 26.75C12.0573 26.75 11.849 26.6302 11.6094 26.3906C11.3698 26.151 11.25 25.8542 11.25 25.5C11.25 25.1458 11.3698 24.849 11.6094 24.6094C11.849 24.3698 12.1458 24.25 12.5 24.25C12.8542 24.25 13.151 24.3698 13.3906 24.6094C13.6302 24.849 13.75 25.1458 13.75 25.5C13.75 25.8542 13.6302 26.151 13.3906 26.3906C13.151 26.6302 12.8542 26.75 12.5 26.75ZM12.5 11.75C12.5 11.75 12.4115 11.75 12.2344 11.75C12.0573 11.75 11.849 11.6302 11.6094 11.3906C11.3698 11.151 11.25 10.8542 11.25 10.5C11.25 10.1458 11.3698 9.84896 11.6094 9.60938C11.849 9.36979 12.1458 9.25 12.5 9.25C12.8542 9.25 13.151 9.36979 13.3906 9.60938C13.6302 9.84896 13.75 10.1458 13.75 10.5C13.75 10.8542 13.6302 11.151 13.3906 11.3906C13.151 11.6302 12.8542 11.75 12.5 11.75ZM12.5 29.875C12.5 29.875 12.4583 29.875 12.375 29.875C12.2917 29.875 12.1875 29.8125 12.0625 29.6875C11.9375 29.5625 11.875 29.4167 11.875 29.25C11.875 29.0833 11.9375 28.9375 12.0625 28.8125C12.1875 28.6875 12.3333 28.625 12.5 28.625C12.6667 28.625 12.8125 28.6875 12.9375 28.8125C13.0625 28.9375 13.125 29.0833 13.125 29.25C13.125 29.4167 13.0625 29.5625 12.9375 29.6875C12.8125 29.8125 12.6667 29.875 12.5 29.875ZM12.5 7.375C12.5 7.375 12.4583 7.375 12.375 7.375C12.2917 7.375 12.1875 7.3125 12.0625 7.1875C11.9375 7.0625 11.875 6.91667 11.875 6.75C11.875 6.58333 11.9375 6.4375 12.0625 6.3125C12.1875 6.1875 12.3333 6.125 12.5 6.125C12.6667 6.125 12.8125 6.1875 12.9375 6.3125C13.0625 6.4375 13.125 6.58333 13.125 6.75C13.125 6.91667 13.0625 7.0625 12.9375 7.1875C12.8125 7.3125 12.6667 7.375 12.5 7.375ZM17.5 22.375C17.5 22.375 17.3698 22.375 17.1094 22.375C16.849 22.375 16.5365 22.1927 16.1719 21.8281C15.8073 21.4635 15.625 21.0208 15.625 20.5C15.625 19.9792 15.8073 19.5365 16.1719 19.1719C16.5365 18.8073 16.9792 18.625 17.5 18.625C18.0208 18.625 18.4635 18.8073 18.8281 19.1719C19.1927 19.5365 19.375 19.9792 19.375 20.5C19.375 21.0208 19.1927 21.4635 18.8281 21.8281C18.4635 22.1927 18.0208 22.375 17.5 22.375ZM17.5 17.375C17.5 17.375 17.3698 17.375 17.1094 17.375C16.849 17.375 16.5365 17.1927 16.1719 16.8281C15.8073 16.4635 15.625 16.0208 15.625 15.5C15.625 14.9792 15.8073 14.5365 16.1719 14.1719C16.5365 13.8073 16.9792 13.625 17.5 13.625C18.0208 13.625 18.4635 13.8073 18.8281 14.1719C19.1927 14.5365 19.375 14.9792 19.375 15.5C19.375 16.0208 19.1927 16.4635 18.8281 16.8281C18.4635 17.1927 18.0208 17.375 17.5 17.375ZM17.5 26.75C17.5 26.75 17.4115 26.75 17.2344 26.75C17.0573 26.75 16.849 26.6302 16.6094 26.3906C16.3698 26.151 16.25 25.8542 16.25 25.5C16.25 25.1458 16.3698 24.849 16.6094 24.6094C16.849 24.3698 17.1458 24.25 17.5 24.25C17.8542 24.25 18.151 24.3698 18.3906 24.6094C18.6302 24.849 18.75 25.1458 18.75 25.5C18.75 25.8542 18.6302 26.151 18.3906 26.3906C18.151 26.6302 17.8542 26.75 17.5 26.75ZM17.5 11.75C17.5 11.75 17.4115 11.75 17.2344 11.75C17.0573 11.75 16.849 11.6302 16.6094 11.3906C16.3698 11.151 16.25 10.8542 16.25 10.5C16.25 10.1458 16.3698 9.84896 16.6094 9.60938C16.849 9.36979 17.1458 9.25 17.5 9.25C17.8542 9.25 18.151 9.36979 18.3906 9.60938C18.6302 9.84896 18.75 10.1458 18.75 10.5C18.75 10.8542 18.6302 11.151 18.3906 11.3906C18.151 11.6302 17.8542 11.75 17.5 11.75ZM17.5 29.875C17.5 29.875 17.4583 29.875 17.375 29.875C17.2917 29.875 17.1875 29.8125 17.0625 29.6875C16.9375 29.5625 16.875 29.4167 16.875 29.25C16.875 29.0833 16.9375 28.9375 17.0625 28.8125C17.1875 28.6875 17.3333 28.625 17.5 28.625C17.6667 28.625 17.8125 28.6875 17.9375 28.8125C18.0625 28.9375 18.125 29.0833 18.125 29.25C18.125 29.4167 18.0625 29.5625 17.9375 29.6875C17.8125 29.8125 17.6667 29.875 17.5 29.875ZM17.5 7.375C17.5 7.375 17.4583 7.375 17.375 7.375C17.2917 7.375 17.1875 7.3125 17.0625 7.1875C16.9375 7.0625 16.875 6.91667 16.875 6.75C16.875 6.58333 16.9375 6.4375 17.0625 6.3125C17.1875 6.1875 17.3333 6.125 17.5 6.125C17.6667 6.125 17.8125 6.1875 17.9375 6.3125C18.0625 6.4375 18.125 6.58333 18.125 6.75C18.125 6.91667 18.0625 7.0625 17.9375 7.1875C17.8125 7.3125 17.6667 7.375 17.5 7.375ZM22.5 26.75C22.5 26.75 22.4115 26.75 22.2344 26.75C22.0573 26.75 21.849 26.6302 21.6094 26.3906C21.3698 26.151 21.25 25.8542 21.25 25.5C21.25 25.1458 21.3698 24.849 21.6094 24.6094C21.849 24.3698 22.1458 24.25 22.5 24.25C22.8542 24.25 23.151 24.3698 23.3906 24.6094C23.6302 24.849 23.75 25.1458 23.75 25.5C23.75 25.8542 23.6302 26.151 23.3906 26.3906C23.151 26.6302 22.8542 26.75 22.5 26.75ZM22.5 21.75C22.5 21.75 22.4115 21.75 22.2344 21.75C22.0573 21.75 21.849 21.6302 21.6094 21.3906C21.3698 21.151 21.25 20.8542 21.25 20.5C21.25 20.1458 21.3698 19.849 21.6094 19.6094C21.849 19.3698 22.1458 19.25 22.5 19.25C22.8542 19.25 23.151 19.3698 23.3906 19.6094C23.6302 19.849 23.75 20.1458 23.75 20.5C23.75 20.8542 23.6302 21.151 23.3906 21.3906C23.151 21.6302 22.8542 21.75 22.5 21.75ZM22.5 16.75C22.5 16.75 22.4115 16.75 22.2344 16.75C22.0573 16.75 21.849 16.6302 21.6094 16.3906C21.3698 16.151 21.25 15.8542 21.25 15.5C21.25 15.1458 21.3698 14.849 21.6094 14.6094C21.849 14.3698 22.1458 14.25 22.5 14.25C22.8542 14.25 23.151 14.3698 23.3906 14.6094C23.6302 14.849 23.75 15.1458 23.75 15.5C23.75 15.8542 23.6302 16.151 23.3906 16.3906C23.151 16.6302 22.8542 16.75 22.5 16.75ZM22.5 11.75C22.5 11.75 22.4115 11.75 22.2344 11.75C22.0573 11.75 21.849 11.6302 21.6094 11.3906C21.3698 11.151 21.25 10.8542 21.25 10.5C21.25 10.1458 21.3698 9.84896 21.6094 9.60938C21.849 9.36979 22.1458 9.25 22.5 9.25C22.8542 9.25 23.151 9.36979 23.3906 9.60938C23.6302 9.84896 23.75 10.1458 23.75 10.5C23.75 10.8542 23.6302 11.151 23.3906 11.3906C23.151 11.6302 22.8542 11.75 22.5 11.75ZM26.25 21.125C26.25 21.125 26.2083 21.125 26.125 21.125C26.0417 21.125 25.9375 21.0625 25.8125 20.9375C25.6875 20.8125 25.625 20.6667 25.625 20.5C25.625 20.3333 25.6875 20.1875 25.8125 20.0625C25.9375 19.9375 26.0833 19.875 26.25 19.875C26.4167 19.875 26.5625 19.9375 26.6875 20.0625C26.8125 20.1875 26.875 20.3333 26.875 20.5C26.875 20.6667 26.8125 20.8125 26.6875 20.9375C26.5625 21.0625 26.4167 21.125 26.25 21.125ZM26.25 16.125C26.25 16.125 26.2083 16.125 26.125 16.125C26.0417 16.125 25.9375 16.0625 25.8125 15.9375C25.6875 15.8125 25.625 15.6667 25.625 15.5C25.625 15.3333 25.6875 15.1875 25.8125 15.0625C25.9375 14.9375 26.0833 14.875 26.25 14.875C26.4167 14.875 26.5625 14.9375 26.6875 15.0625C26.8125 15.1875 26.875 15.3333 26.875 15.5C26.875 15.6667 26.8125 15.8125 26.6875 15.9375C26.5625 16.0625 26.4167 16.125 26.25 16.125Z" fill="#334155"/>
</svg>
