<svg width="25" height="28" viewBox="0 0 25 28" fill="none" xmlns="http://www.w3.org/2000/svg">
<path d="M8.12107 19.8333H15.8988V17.8889H8.12107V19.8333ZM8.12107 15.9445H15.8988V14H8.12107V15.9445ZM6.17662 23.7222C5.6419 23.7222 5.18415 23.5318 4.80336 23.151C4.42257 22.7703 4.23218 22.3125 4.23218 21.7778V6.22223C4.23218 5.68751 4.42257 5.22975 4.80336 4.84896C5.18415 4.46818 5.6419 4.27778 6.17662 4.27778H13.9544L19.7877 10.1111V21.7778C19.7877 22.3125 19.5973 22.7703 19.2166 23.151C18.8358 23.5318 18.378 23.7222 17.8433 23.7222H6.17662ZM12.9822 11.0833V6.22223H6.17662V21.7778H17.8433V11.0833H12.9822ZM6.17662 6.22223V11.0833V21.7778V6.22223Z" fill="#475569"/>
</svg>
