<svg width="25" height="28" viewBox="0 0 25 28" fill="none" xmlns="http://www.w3.org/2000/svg">
<path d="M4.23223 22.75C3.6975 22.75 3.23975 22.5596 2.85896 22.1788C2.47817 21.798 2.28778 21.3403 2.28778 20.8056V10.1111C2.28778 9.57639 2.47817 9.11863 2.85896 8.73785C3.23975 8.35706 3.6975 8.16667 4.23223 8.16667H8.12111V6.22222C8.12111 5.6875 8.31151 5.22974 8.69229 4.84896C9.07308 4.46817 9.53084 4.27778 10.0656 4.27778H13.9544C14.4892 4.27778 14.9469 4.46817 15.3277 4.84896C15.7085 5.22974 15.8989 5.6875 15.8989 6.22222V8.16667H19.7878C20.3225 8.16667 20.7803 8.35706 21.161 8.73785C21.5418 9.11863 21.7322 9.57639 21.7322 10.1111V20.8056C21.7322 21.3403 21.5418 21.798 21.161 22.1788C20.7803 22.5596 20.3225 22.75 19.7878 22.75H4.23223ZM10.0656 8.16667H13.9544V6.22222H10.0656V8.16667ZM19.7878 16.9167H14.9267V18.8611H9.09334V16.9167H4.23223V20.8056H19.7878V16.9167ZM11.0378 16.9167H12.9822V14.9722H11.0378V16.9167ZM4.23223 14.9722H9.09334V13.0278H14.9267V14.9722H19.7878V10.1111H4.23223V14.9722Z" fill="#303338"/>
</svg>
