<svg width="33" height="29" viewBox="0 0 33 29" fill="none" xmlns="http://www.w3.org/2000/svg"><defs><linearGradient id="brandGradient" x1="0%" y1="0%" x2="100%" y2="100%"><stop offset="0%" stop-color="#4f46e5"/><stop offset="50%" stop-color="#6366f1"/><stop offset="100%" stop-color="#818cf8"/></linearGradient></defs>
<path d="M0 28.5L16.5 -1.90735e-06L33 28.5H0ZM5.175 25.5H27.825L16.5 6L5.175 25.5ZM16.5 24C16.5 24 16.6063 24 16.8188 24C17.0312 24 17.2812 23.8562 17.5688 23.5687C17.8563 23.2812 18 22.925 18 22.5C18 22.075 17.8563 21.7187 17.5688 21.4312C17.2812 21.1437 16.925 21 16.5 21C16.075 21 15.7188 21.1437 15.4313 21.4312C15.1438 21.7187 15 22.075 15 22.5C15 22.925 15.1438 23.2812 15.4313 23.5687C15.7188 23.8562 16.075 24 16.5 24ZM15 19.5H18V12H15V19.5Z" fill="url(#brandGradient)"/>
</svg>
