<svg width="25" height="28" viewBox="0 0 25 28" fill="none" xmlns="http://www.w3.org/2000/svg"><defs><linearGradient id="brandGradient" x1="0%" y1="0%" x2="100%" y2="100%"><stop offset="0%" stop-color="#4f46e5"/><stop offset="50%" stop-color="#6366f1"/><stop offset="100%" stop-color="#818cf8"/></linearGradient></defs>
<path d="M12.01 17.8889C12.01 17.8889 12.3138 17.8889 12.9215 17.8889C13.5291 17.8889 14.2583 17.4635 15.109 16.6128C15.9596 15.7621 16.385 14.7292 16.385 13.5139C16.385 12.2986 15.9596 11.2656 15.109 10.4149C14.2583 9.56422 13.2253 9.13888 12.01 9.13888C10.7947 9.13888 9.76173 9.56422 8.91104 10.4149C8.06034 11.2656 7.635 12.2986 7.635 13.5139C7.635 14.7292 8.06034 15.7621 8.91104 16.6128C9.76173 17.4635 10.7947 17.8889 12.01 17.8889ZM12.01 16.1389C12.01 16.1389 11.8277 16.1389 11.4631 16.1389C11.0985 16.1389 10.661 15.8837 10.1506 15.3733C9.6402 14.8628 9.385 14.243 9.385 13.5139C9.385 12.7847 9.6402 12.1649 10.1506 11.6545C10.661 11.1441 11.2808 10.8889 12.01 10.8889C12.7392 10.8889 13.359 11.1441 13.8694 11.6545C14.3798 12.1649 14.635 12.7847 14.635 13.5139C14.635 14.243 14.3798 14.8628 13.8694 15.3733C13.359 15.8837 12.7392 16.1389 12.01 16.1389ZM12.01 20.8055C12.01 20.8055 11.4186 20.8055 10.2357 20.8055C9.05282 20.8055 7.48916 20.1452 5.54472 18.8246C3.60027 17.504 2.19055 15.7338 1.31555 13.5139C2.19055 11.294 3.60027 9.52371 5.54472 8.20311C7.48916 6.88251 9.64426 6.22221 12.01 6.22221C14.3757 6.22221 16.5308 6.88251 18.4753 8.20311C20.4197 9.52371 21.8294 11.294 22.7044 13.5139C21.8294 15.7338 20.4197 17.504 18.4753 18.8246C16.5308 20.1452 14.3757 20.8055 12.01 20.8055ZM12.01 18.8611C12.01 18.8611 12.4678 18.8611 13.3833 18.8611C14.2988 18.8611 15.5221 18.379 17.0534 17.4149C18.5847 16.4508 19.7554 15.1504 20.5656 13.5139C19.7554 11.8773 18.5847 10.577 17.0534 9.61283C15.5221 8.64871 13.841 8.16665 12.01 8.16665C10.179 8.16665 8.49784 8.64871 6.96659 9.61283C5.43534 10.577 4.26463 11.8773 3.45444 13.5139C4.26463 15.1504 5.43534 16.4508 6.96659 17.4149C8.49784 18.379 10.179 18.8611 12.01 18.8611Z" fill="url(#brandGradient)"/>
</svg>
