<svg width="15" height="16" viewBox="0 0 15 16" fill="none" xmlns="http://www.w3.org/2000/svg">
<path d="M6.2278 10.548L10.1417 6.63417L9.36445 5.85694L6.2278 8.99359L4.6456 7.41139L3.86837 8.18861L6.2278 10.548ZM7.00502 13.5459C6.23705 13.5459 5.51535 13.4002 4.8399 13.1087C4.16446 12.8173 3.57691 12.4217 3.07727 11.9221C2.57763 11.4224 2.18208 10.8349 1.89062 10.1594C1.59916 9.48398 1.45343 8.76228 1.45343 7.99431C1.45343 7.22634 1.59916 6.50463 1.89062 5.82919C2.18208 5.15374 2.57763 4.5662 3.07727 4.06655C3.57691 3.56691 4.16446 3.17136 4.8399 2.8799C5.51535 2.58844 6.23705 2.44271 7.00502 2.44271C7.77299 2.44271 8.4947 2.58844 9.17014 2.8799C9.84559 3.17136 10.4331 3.56691 10.9328 4.06655C11.4324 4.5662 11.828 5.15374 12.1194 5.82919C12.4109 6.50463 12.5566 7.22634 12.5566 7.99431C12.5566 8.76228 12.4109 9.48398 12.1194 10.1594C11.828 10.8349 11.4324 11.4224 10.9328 11.9221C10.4331 12.4217 9.84559 12.8173 9.17014 13.1087C8.4947 13.4002 7.77299 13.5459 7.00502 13.5459ZM7.00502 12.4356C8.24488 12.4356 9.29506 12.0053 10.1556 11.1448C11.016 10.2843 11.4463 9.23416 11.4463 7.99431C11.4463 6.75445 11.016 5.70427 10.1556 4.84378C9.29506 3.98328 8.24488 3.55303 7.00502 3.55303C5.76517 3.55303 4.71499 3.98328 3.85449 4.84378C2.994 5.70427 2.56375 6.75445 2.56375 7.99431C2.56375 9.23416 2.994 10.2843 3.85449 11.1448C4.71499 12.0053 5.76517 12.4356 7.00502 12.4356Z" fill="#36B37E"/>
</svg>
