<svg width="22" height="26" viewBox="0 0 22 26" fill="none" xmlns="http://www.w3.org/2000/svg">
<path d="M3.77777 19.3194V17.5139H5.58333V11.1944C5.58333 9.9456 5.95948 8.83594 6.7118 7.86545C7.46411 6.89497 8.44212 6.25926 9.64583 5.95833V5.32639C9.64583 4.95023 9.77748 4.6305 10.0408 4.36719C10.3041 4.10388 10.6238 3.97222 11 3.97222C11.3762 3.97222 11.6959 4.10388 11.9592 4.36719C12.2225 4.6305 12.3542 4.95023 12.3542 5.32639V5.95833C13.5579 6.25926 14.5359 6.89497 15.2882 7.86545C16.0405 8.83594 16.4167 9.9456 16.4167 11.1944V17.5139H18.2222V19.3194H3.77777ZM11 22.0278C10.5035 22.0278 10.0784 21.851 9.72482 21.4974C9.37123 21.1438 9.19444 20.7188 9.19444 20.2222H12.8055C12.8055 20.7188 12.6288 21.1438 12.2752 21.4974C11.9216 21.851 11.4965 22.0278 11 22.0278ZM7.38888 17.5139H14.6111V11.1944C14.6111 10.2014 14.2575 9.35127 13.5503 8.6441C12.8432 7.93692 11.993 7.58333 11 7.58333C10.0069 7.58333 9.15682 7.93692 8.44965 8.6441C7.74247 9.35127 7.38888 10.2014 7.38888 11.1944V17.5139Z" fill="#5E6C84"/>
</svg>
