<svg width="25" height="28" viewBox="0 0 25 28" fill="none" xmlns="http://www.w3.org/2000/svg">
<path d="M12.01 14.0001C10.9406 14.0001 10.0251 13.6193 9.26349 12.8577C8.50191 12.0961 8.12113 11.1806 8.12113 10.1112C8.12113 9.04172 8.50191 8.12621 9.26349 7.36464C10.0251 6.60306 10.9406 6.22228 12.01 6.22228C13.0795 6.22228 13.995 6.60306 14.7565 7.36464C15.5181 8.12621 15.8989 9.04172 15.8989 10.1112C15.8989 11.1806 15.5181 12.0961 14.7565 12.8577C13.995 13.6193 13.0795 14.0001 12.01 14.0001ZM4.23224 21.7778V19.0556C4.23224 18.5047 4.37402 17.9983 4.65759 17.5365C4.94115 17.0747 5.31789 16.7223 5.78779 16.4792C6.79242 15.9769 7.81326 15.6002 8.85029 15.349C9.88733 15.0979 10.9406 14.9723 12.01 14.9723C13.0795 14.9723 14.1327 15.0979 15.1697 15.349C16.2068 15.6002 17.2276 15.9769 18.2322 16.4792C18.7021 16.7223 19.0789 17.0747 19.3624 17.5365C19.646 17.9983 19.7878 18.5047 19.7878 19.0556V21.7778H4.23224ZM6.17668 19.8334H17.8434V19.0556C17.8434 18.8774 17.7988 18.7153 17.7097 18.5695C17.6205 18.4237 17.5031 18.3102 17.3572 18.2292C16.4822 17.7917 15.5991 17.4636 14.7079 17.2448C13.8167 17.0261 12.9174 16.9167 12.01 16.9167C11.1026 16.9167 10.2033 17.0261 9.3121 17.2448C8.4209 17.4636 7.53779 17.7917 6.66279 18.2292C6.51696 18.3102 6.39948 18.4237 6.31036 18.5695C6.22124 18.7153 6.17668 18.8774 6.17668 19.0556V19.8334ZM12.01 12.0556C12.5447 12.0556 13.0025 11.8652 13.3833 11.4844C13.7641 11.1036 13.9545 10.6459 13.9545 10.1112C13.9545 9.57644 13.7641 9.11869 13.3833 8.7379C13.0025 8.35711 12.5447 8.16672 12.01 8.16672C11.4753 8.16672 11.0175 8.35711 10.6368 8.7379C10.256 9.11869 10.0656 9.57644 10.0656 10.1112C10.0656 10.6459 10.256 11.1036 10.6368 11.4844C11.0175 11.8652 11.4753 12.0556 12.01 12.0556Z" fill="#24748F"/>
</svg>
