<svg width="54" height="60" viewBox="0 0 54 60" fill="none" xmlns="http://www.w3.org/2000/svg">
<rect width="54" height="60" rx="12" fill="#ECFDF5"/>
<path d="M19.5 42.5V37.125C18.3125 36.0417 17.3906 34.776 16.7344 33.3281C16.0781 31.8802 15.75 30.3542 15.75 28.75C15.75 25.625 16.8438 22.9688 19.0312 20.7812C21.2188 18.5938 23.875 17.5 27 17.5C29.6042 17.5 31.9115 18.2656 33.9219 19.7969C35.9323 21.3281 37.2396 23.3229 37.8438 25.7812L39.4688 32.1875C39.5729 32.5833 39.5 32.9427 39.25 33.2656C39 33.5885 38.6667 33.75 38.25 33.75H35.75V37.5C35.75 38.1875 35.5052 38.776 35.0156 39.2656C34.526 39.7552 33.9375 40 33.25 40H30.75V42.5H28.25V37.5H33.25V31.25H36.625L35.4375 26.4062C34.9583 24.5104 33.9375 22.9688 32.375 21.7812C30.8125 20.5938 29.0208 20 27 20C24.5833 20 22.5208 20.8438 20.8125 22.5312C19.1042 24.2188 18.25 26.2708 18.25 28.6875C18.25 29.9375 18.5052 31.125 19.0156 32.25C19.526 33.375 20.25 34.375 21.1875 35.25L22 36V42.5H19.5ZM25.75 33.75H28.25L28.4375 32.1875C28.6042 32.125 28.7552 32.0521 28.8906 31.9688C29.026 31.8854 29.1458 31.7917 29.25 31.6875L30.6875 32.3125L31.9375 30.1875L30.6875 29.25C30.7292 29.0833 30.75 28.9167 30.75 28.75C30.75 28.5833 30.7292 28.4167 30.6875 28.25L31.9375 27.3125L30.6875 25.1875L29.25 25.8125C29.1458 25.7083 29.026 25.6146 28.8906 25.5312C28.7552 25.4479 28.6042 25.375 28.4375 25.3125L28.25 23.75H25.75L25.5625 25.3125C25.3958 25.375 25.2448 25.4479 25.1094 25.5312C24.974 25.6146 24.8542 25.7083 24.75 25.8125L23.3125 25.1875L22.0625 27.3125L23.3125 28.25C23.2708 28.4167 23.25 28.5833 23.25 28.75C23.25 28.9167 23.2708 29.0833 23.3125 29.25L22.0625 30.1875L23.3125 32.3125L24.75 31.6875C24.8542 31.7917 24.974 31.8854 25.1094 31.9688C25.2448 32.0521 25.3958 32.125 25.5625 32.1875L25.75 33.75ZM27 30.625C26.4792 30.625 26.0365 30.4427 25.6719 30.0781C25.3073 29.7135 25.125 29.2708 25.125 28.75C25.125 28.2292 25.3073 27.7865 25.6719 27.4219C26.0365 27.0573 26.4792 26.875 27 26.875C27.5208 26.875 27.9635 27.0573 28.3281 27.4219C28.6927 27.7865 28.875 28.2292 28.875 28.75C28.875 29.2708 28.6927 29.7135 28.3281 30.0781C27.9635 30.4427 27.5208 30.625 27 30.625Z" fill="#047857"/>
</svg>
