<svg width="32" height="32" viewBox="0 0 32 32" fill="none" xmlns="http://www.w3.org/2000/svg">
<rect width="32" height="32" rx="8" fill="#047857" fill-opacity="0.1"/>
<path d="M18.4306 24.75C17.6204 24.75 16.9317 24.4664 16.3646 23.8993C15.7975 23.3322 15.5139 22.6435 15.5139 21.8333C15.5139 21.0231 15.7975 20.3345 16.3646 19.7674C16.9317 19.2002 17.6204 18.9167 18.4306 18.9167C19.2407 18.9167 19.9294 19.2002 20.4965 19.7674C21.0637 20.3345 21.3472 21.0231 21.3472 21.8333C21.3472 22.6435 21.0637 23.3322 20.4965 23.8993C19.9294 24.4664 19.2407 24.75 18.4306 24.75ZM18.4306 22.8056C18.706 22.8056 18.9369 22.7124 19.1233 22.526C19.3096 22.3397 19.4028 22.1088 19.4028 21.8333C19.4028 21.5579 19.3096 21.327 19.1233 21.1406C18.9369 20.9543 18.706 20.8611 18.4306 20.8611C18.1551 20.8611 17.9242 20.9543 17.7378 21.1406C17.5515 21.327 17.4583 21.5579 17.4583 21.8333C17.4583 22.1088 17.5515 22.3397 17.7378 22.526C17.9242 22.7124 18.1551 22.8056 18.4306 22.8056ZM20.375 17.9444C18.8843 17.9444 17.6204 17.4259 16.5833 16.3889C15.5463 15.3519 15.0278 14.088 15.0278 12.5972C15.0278 11.1065 15.5463 9.84259 16.5833 8.80556C17.6204 7.76852 18.8843 7.25 20.375 7.25C21.8657 7.25 23.1296 7.76852 24.1667 8.80556C25.2037 9.84259 25.7222 11.1065 25.7222 12.5972C25.7222 14.088 25.2037 15.3519 24.1667 16.3889C23.1296 17.4259 21.8657 17.9444 20.375 17.9444ZM20.375 16C21.331 16 22.1372 15.6719 22.7934 15.0156C23.4497 14.3594 23.7778 13.5532 23.7778 12.5972C23.7778 11.6412 23.4497 10.8351 22.7934 10.1788C22.1372 9.52257 21.331 9.19444 20.375 9.19444C19.419 9.19444 18.6128 9.52257 17.9566 10.1788C17.3003 10.8351 16.9722 11.6412 16.9722 12.5972C16.9722 13.5532 17.3003 14.3594 17.9566 15.0156C18.6128 15.6719 19.419 16 20.375 16ZM11.1389 21.8333C10.0694 21.8333 9.15394 21.4525 8.39236 20.691C7.63079 19.9294 7.25 19.0139 7.25 17.9444C7.25 16.875 7.63079 15.9595 8.39236 15.1979C9.15394 14.4363 10.0694 14.0556 11.1389 14.0556C12.2083 14.0556 13.1238 14.4363 13.8854 15.1979C14.647 15.9595 15.0278 16.875 15.0278 17.9444C15.0278 19.0139 14.647 19.9294 13.8854 20.691C13.1238 21.4525 12.2083 21.8333 11.1389 21.8333ZM11.1389 19.8889C11.6736 19.8889 12.1314 19.6985 12.5122 19.3177C12.8929 18.9369 13.0833 18.4792 13.0833 17.9444C13.0833 17.4097 12.8929 16.952 12.5122 16.5712C12.1314 16.1904 11.6736 16 11.1389 16C10.6042 16 10.1464 16.1904 9.76563 16.5712C9.38484 16.952 9.19444 17.4097 9.19444 17.9444C9.19444 18.4792 9.38484 18.9369 9.76563 19.3177C10.1464 19.6985 10.6042 19.8889 11.1389 19.8889Z" fill="#047857"/>
</svg>
