<svg width="40" height="32" viewBox="0 0 40 32" fill="none" xmlns="http://www.w3.org/2000/svg"><defs><linearGradient id="brandGradient" x1="0%" y1="0%" x2="100%" y2="100%"><stop offset="0%" stop-color="#4f46e5"/><stop offset="50%" stop-color="#6366f1"/><stop offset="100%" stop-color="#818cf8"/></linearGradient></defs>
<path d="M24 32V28H30C30.5667 28 31.0417 27.8083 31.425 27.425C31.8083 27.0417 32 26.5667 32 26V22C32 20.7333 32.3667 19.5833 33.1 18.55C33.8333 17.5167 34.8 16.7833 36 16.35V15.65C34.8 15.2167 33.8333 14.4833 33.1 13.45C32.3667 12.4167 32 11.2667 32 10V6C32 5.43333 31.8083 4.95833 31.425 4.575C31.0417 4.19167 30.5667 4 30 4H24V0H30C31.6667 0 33.0833 0.583332 34.25 1.75C35.4167 2.91667 36 4.33333 36 6V10C36 10.5667 36.1917 11.0417 36.575 11.425C36.9583 11.8083 37.4333 12 38 12H40V20H38C37.4333 20 36.9583 20.1917 36.575 20.575C36.1917 20.9583 36 21.4333 36 22V26C36 27.6667 35.4167 29.0833 34.25 30.25C33.0833 31.4167 31.6667 32 30 32H24ZM10 32C8.33333 32 6.91667 31.4167 5.75 30.25C4.58333 29.0833 4 27.6667 4 26V22C4 21.4333 3.80833 20.9583 3.425 20.575C3.04167 20.1917 2.56667 20 2 20H0V12H2C2.56667 12 3.04167 11.8083 3.425 11.425C3.80833 11.0417 4 10.5667 4 10V6C4 4.33333 4.58333 2.91667 5.75 1.75C6.91667 0.583332 8.33333 0 10 0H16V4H10C9.43333 4 8.95833 4.19167 8.575 4.575C8.19167 4.95833 8 5.43333 8 6V10C8 11.2667 7.63333 12.4167 6.9 13.45C6.16667 14.4833 5.2 15.2167 4 15.65V16.35C5.2 16.7833 6.16667 17.5167 6.9 18.55C7.63333 19.5833 8 20.7333 8 22V26C8 26.5667 8.19167 27.0417 8.575 27.425C8.95833 27.8083 9.43333 28 10 28H16V32H10Z" fill="url(#brandGradient)"/>
</svg>
